<?xml version="1.0" encoding="utf-8"?>
<!-- Generator: Adobe Illustrator 26.0.0, SVG Export Plug-In . SVG Version: 6.00 Build 0)  -->
<svg version="1.1" id="Layer_1" xmlns="http://www.w3.org/2000/svg" xmlns:xlink="http://www.w3.org/1999/xlink" x="0px" y="0px"
	 viewBox="0 0 1024 1024" style="enable-background:new 0 0 1024 1024;" xml:space="preserve">
<style type="text/css">
	.st0{fill:#F8951D;}
	.st1{fill:#F1F2F2;}
	.st2{fill:#4DB85A;}
	.st3{fill:#5A5DAA;}
	.st4{opacity:0.4;fill:#58595B;}
	.st5{fill:#A2845E;}
</style>
<path class="st0" d="M112,426c48-5,93-17,141-29c119-30,217-91,304-174C638.1,145.35,708.05,68.45,797.01,0H0v430.82
	C37.18,432.16,74.71,429.93,112,426z"/>
<path class="st1" d="M805,326c-24-57,30-108,77-139c34-23,65-38,98-61c15.14-11.13,29.48-22.05,44-32.08V0H797.01
	C708.05,68.45,638.1,145.35,557,223c-87,83-185,144-304,174c-48,12-93,24-141,29c-37.29,3.93-74.82,6.16-112,4.82v235.41
	c6.52-2.32,13.18-4.41,20-6.23c121-34,230-80,349-114c92-27,186-31,280-22c135.8,12.35,253.71,78.34,375,138.34V434.92
	c-43.97-13.2-87.56-28.96-131-42.92C857,381,820,361,805,326z"/>
<path class="st2" d="M980,126c-33,23-64,38-98,61c-47,31-101,82-77,139c15,35,52,55,88,66c43.44,13.96,87.03,29.73,131,42.92V93.92
	C1009.48,103.95,995.14,114.87,980,126z"/>
<path class="st3" d="M369,546c-119,34-228,80-349,114c-6.82,1.82-13.48,3.91-20,6.23V1024h1024V662.34
	c-121.29-60-239.2-126-375-138.34C555,515,461,519,369,546z"/>
<circle class="st4" cx="542" cy="542" r="250"/>
<circle class="st5" cx="512" cy="512" r="250"/>
<g>
	<path class="st1" d="M396.82,466.3c15.71,0,28.46-12.71,28.46-28.5c0-15.79-12.75-28.54-28.46-28.54
		c-15.75,0-28.61,12.75-28.61,28.54C368.21,453.59,381.07,466.3,396.82,466.3z"/>
	<path class="st1" d="M433.36,499.48c-9.57-11.21-22.29-18.11-36.29-18.11c-29.57,0-53.54,30-53.54,67l10.29,11.39l-13.89,11.89
		L337,574.3c0,4.11,26.75,7.64,59.82,7.64c0.25,0,0.54,0,0.79,0C400.21,548.66,413.57,519.23,433.36,499.48z"/>
	<path class="st1" d="M511.93,465.73c28.61,0,51.57-23,51.57-51.43c0-28.46-22.96-51.54-51.57-51.54c-28.46,0-51.5,23.07-51.5,51.54
		C460.43,442.73,483.5,465.73,511.93,465.73z"/>
	<path class="st1" d="M615.54,643.41l-25.75-22.36l18.68-20.68h0.46c0-3.89-0.14-7.86-0.46-11.68
		c-2.61-33.5-16.07-62.86-35.89-82.68c-16.57-16.64-37.5-26.43-60.32-26.43c-22.86,0-43.86,9.79-60.46,26.54
		c-19.68,19.82-33.11,49.14-35.61,82.54c-0.39,3.82-0.54,7.79-0.54,11.68l18.64,20.68l-25.25,21.93l-5.18,4.25
		c0,7.64,48.21,14.04,107.89,14.04c59.75,0,108-6.39,108-14.04h0.21l-0.25-0.36L615.54,643.41z"/>
	<path class="st1" d="M627.14,471.23c15.79,0,28.57-12.82,28.57-28.54c0-15.79-12.79-28.54-28.57-28.54
		c-15.71,0-28.54,12.75-28.54,28.54C598.61,458.41,611.43,471.23,627.14,471.23z"/>
	<path class="st1" d="M686.86,571.48l-2.32-1.93l-14.36-12.39l10.32-11.32h0.25c0-37.04-23.93-67.04-53.43-67.04
		c-14,0-26.68,6.79-36.25,18.07c19.82,19.75,33.25,49.07,35.89,82.61h0.07c33.11,0,59.82-3.54,59.82-7.86H687L686.86,571.48z"/>
</g>
</svg>
